<svg focusable="false" xmlns="http://www.w3.org/2000/svg" viewBox="0 0 31 21">
  <g stroke="null">
    <path fill="#26A6D1" d="M2 0h27c1.1 0 2 .8 2 1.8v17.3c0 1-.9 1.9-2 1.9H2C.8 21 0 20 0 19V1.8C0 .8.9 0 2 0z"/>
    <path fill="#FFF"
          d="M5 7.3l-3 6.4h3.6l.4-1h1l.5 1h4v-.8l.4.8H14l.4-.8v.8h8.4l1-1 1 1H29l-3-3.2 3-3.2h-4.2l-1 1-1-1h-9L13 8.9l-.8-1.6H8.5V8l-.4-.7H5zm.7.9h1.8l2 4.3V8.2h2l1.5 3 1.5-3h2v4.6h-1.3V9.2l-1.7 3.6h-1l-1.8-3.6v3.6H8.3l-.5-1H5.3l-.4 1H3.6l2.1-4.6zm11.8 0h4.8l1.5 1.5 1.5-1.5h1.5l-2.3 2.3 2.3 2.3h-1.6l-1.4-1.5-1.6 1.5h-4.7V8.2zM6.5 9l-.8 1.8h1.7L6.6 9zm12.2.1v.9h2.6v1h-2.6v.8h3l1.3-1.3L21.7 9h-3z"/>
  </g>
</svg>