<svg focusable="false" xmlns="http://www.w3.org/2000/svg" viewBox="0 0 31 21">
  <g stroke="null" fill="none">
    <rect ry="2" rx="2" height="20.9" width="30.9" fill="#0079BE"/>
    <path fill="#FFF"
          d="M24.2 10.6C24.2 6.2 20.7 3 17 3h-3.2c-3.8 0-7 3-7 7.5 0 4 3.2 7.4 7 7.3H17c3.7 0 7.2-3.3 7.2-7.3z"/>
    <path fill="#0079BE" d="M13.8 3.7c-3.5 0-6.3 3-6.3 6.8s2.8 6.8 6.3 6.8 6.3-3 6.3-6.8c0-3.7-2.8-6.8-6.3-6.8z"/>
    <path fill="#FFF"
          d="M9.8 10.5c0-1.8 1-3.4 2.6-4v8a4.3 4.3 0 0 1-2.6-4zm5.4 4v-8c1.5.6 2.6 2.2 2.6 4 0 1.8-1 3.4-2.6 4z"/>
  </g>
</svg>