<svg focusable="false" xmlns="http://www.w3.org/2000/svg" viewBox="0 0 31 21">
  <g stroke="null" fill="none">
    <path fill="#4D4D4D"
          d="M2.2.1C1 .1 0 1.1 0 2.4v16.2C0 20 1 21 2.2 21h26.5c1.2 0 2.2-1 2.2-2.3V2.4c0-1.3-1-2.3-2.2-2.3H2.2z"/>
    <path fill="#FFF"
          d="M13 6.8c.3 0 .6 0 1 .3v1c-.4-.4-.7-.5-1-.5-.8 0-1.4.6-1.4 1.4 0 .9.5 1.5 1.4 1.5.3 0 .6-.1 1-.5v1l-1 .3c-1.3 0-2.3-1-2.3-2.3 0-1.2 1-2.2 2.3-2.2zM9 6.8c.5 0 .9.2 1.2.5L10 8c-.2-.3-.4-.4-.7-.4-.3 0-.6.2-.6.5 0 .2.2.4.7.5.9.4 1.2.7 1.2 1.4 0 .8-.6 1.4-1.5 1.4-.6 0-1-.3-1.4-.8l.5-.6c.2.4.5.6 1 .6.3 0 .5-.2.5-.6 0-.2 0-.3-.2-.4l-.6-.3c-.7-.3-1-.6-1-1.1 0-.7.6-1.3 1.3-1.3zm9.3.1h.9l1.1 2.9 1.1-2.9h.9l-1.8 4.4h-.4l-1.8-4.4zM2.7 7h1.2C5.2 7 6 7.8 6 9.1c0 .6-.3 1.2-.8 1.6-.4.3-.8.5-1.4.5H2.7V6.9zm3.8 0h.8v4.3h-.8V6.9zm16.3 0H25v.7h-1.5v1H25v.7h-1.4v1.2H25v.7h-2.3V6.9zm2.8 0h1.2c1 0 1.5.5 1.5 1.3 0 .6-.3 1-1 1.2l1.4 1.8h-1l-1.2-1.7v1.7h-.9V6.9zm.8.7v1.3h.3c.5 0 .8-.3.8-.7 0-.4-.3-.6-.8-.6h-.3zm-23 0v2.9h.3c.5 0 .9-.1 1.1-.4.3-.2.5-.6.5-1S5 8.1 4.8 8c-.3-.3-.6-.4-1.1-.4h-.2z"/>
    <path fill="#F47216"
          d="M16.4 6.8c1.3 0 2.2 1 2.2 2.2s-1 2.2-2.2 2.2c-1.2 0-2.2-1-2.2-2.2 0-1.2 1-2.2 2.2-2.2zM31 12c-1 .7-8.8 6.2-22.1 8.8h19.9c1.2 0 2.2-1 2.2-2.3v-6.5z"/>
  </g>
</svg>