<svg focusable="false" xmlns="http://www.w3.org/2000/svg" viewBox="0 0 31 21">
  <g stroke="null">
    <path d="M1.7.1h27.6c.9 0 1.6.8 1.6 1.8V19c0 1-.7 1.8-1.6 1.8H1.7C.8 20.9.1 20 .1 19V2C.1.9.8 0 1.7 0z"/>
    <path fill="#FFF100" d="M6.7 7.6l.8-.1c1.4 0 2.4 1 2.7 2.3l1.8-.4a4.7 4.7 0 0 0-4.5-3.9c-.5 0-1 0-1.4.3l.6 1.8z"/>
    <path fill="#00A3DF"
          d="M4.5 14l1.3-1.5a3 3 0 0 1-1-2.1 3 3 0 0 1 1-2.2L4.5 6.7A5 5 0 0 0 3 10.4 5 5 0 0 0 4.5 14z"/>
    <path fill="#EE4023" d="M10.2 11a2.7 2.7 0 0 1-2.7 2.2l-.8-.1L6 15l1.4.2c2.3 0 4.1-1.7 4.5-3.9l-1.8-.4z"/>
    <path fill="#fff"
          d="M18.2 12.3c-.3.3-.7.5-1.2.5-.3 0-.6-.1-.8-.3l-.6 1a2.7 2.7 0 0 0 3.4-.4l-.8-.8zm-1-4.2a2.9 2.9 0 0 0-3 2.9c0 .6.2 1.2.5 1.6l5-2.3a2.8 2.8 0 0 0-2.6-2.2m-1.7 3.1V11c0-1 .8-1.7 1.7-1.7.5 0 1 .2 1.2.6l-2.9 1.3zm6-4.5v5.7l1 .5-.5 1-1-.3a1 1 0 0 1-.4-.4l-.2-.7V6.7h1zm3.4 2.7l.5-.1c.8 0 1.5.6 1.6 1.4l1.1-.3a2.8 2.8 0 0 0-2.7-2.3l-.9.1.4 1.2zm-1.4 3.8l.8-.9c-.3-.3-.6-.8-.6-1.3s.3-1 .6-1.3l-.8-.9c-.5.5-1 1.3-1 2.2s.5 1.7 1 2.2zm3.5-1.8c-.1.8-.8 1.4-1.6 1.4l-.5-.1-.4 1.1.9.2c1.4 0 2.5-1 2.7-2.4l-1-.2z"/>
  </g>
</svg>