<svg focusable="false" xmlns="http://www.w3.org/2000/svg" viewBox="0 0 31 21">
  <style>.st9{fill:#fff}</style>
  <g stroke="null" id="svg_1">
    <radialGradient gradientUnits="userSpaceOnUse" gradientTransform="translate(110.7 -455.1) scale(1.0164)" r="53.6"
                    cy="513.7" cx="-31.9" id="SVGID_2_">
      <stop stop-color="#E30613" offset="0"/>
      <stop stop-color="#C21B21" offset="1"/>
    </radialGradient>
    <path id="svg_2" fill-rule="evenodd" clip-rule="evenodd" fill="url(#SVGID_2_)"
          d="M0 16.8h26a3 3 0 0 0 2.6-2.3L31 4.2H5a3 3 0 0 0-2.7 2.3L0 16.8z"/>
    <g id="svg_3">
      <path id="svg_4" d="M8.4 8.3h-.6L7.4 10H5.8L6 8.4v-.1h-.5-.1l-.9 4h.6l.5-1.8h1.6L7 12.2l.1.1h.5l1-4h-.1z"
            class="st9"/>
      <path id="svg_5" d="M9.5 9.4h-.6l-.7 2.8h.6l.7-2.8z" class="st9"/>
      <path id="svg_6" d="M9.3 9c.2 0 .4-.1.4-.3v-.3l-.3-.1c-.2 0-.4.1-.4.3V9l.3.1z" class="st9"/>
      <path id="svg_7"
            d="M11.6 9.3c-.3 0-.7.1-1 .4v-.2-.1h-.4-.1l-.2 1-.7 3h.6l.4-1.3c.1.2.4.3.6.3.7 0 1.4-.5 1.7-1.6 0-.5 0-.9-.2-1.2a.9.9 0 0 0-.7-.3zm-.8 2.5a.5.5 0 0 1-.5-.5v-.2l.2-.5v-.2c.2-.3.5-.6.8-.6l.4.2c.2.2.2.5.1.8-.1.6-.5 1-1 1z"
            class="st9"/>
      <path id="svg_8"
            d="M14.4 9.3c-.8 0-1.5.7-1.7 1.6-.1.5 0 .9.2 1.1.2.2.4.4.8.4l1-.2v-.4c0-.1 0-.1 0 0h-.8l-.5-.1c-.1-.2-.2-.4-.1-.7H15l.1-.3c0-.1.2-.7-.1-1a.9.9 0 0 0-.7-.4zm-.2.5c.2 0 .3 0 .4.2v.5h-1.2c.1-.3.4-.7.8-.7z"
            class="st9"/>
      <path id="svg_9"
            d="M17.3 10v-.1l.1-.5h-.2a1 1 0 0 0-.8.3l.1-.2v-.1H16h-.1c0 .3 0 .6-.2 1l-.4 1.9h.6l.4-1.5v-.2c.2-.4.5-.6.8-.6h.1z"
            class="st9"/>
      <path id="svg_10"
            d="M18.9 9.9h.5s0 .1 0 0l.3-.3v-.2H19a2 2 0 0 0-1.9 1.4c0 .5 0 1 .2 1.2.2.2.5.3.9.3l.8-.1v-.4-.1l-.7.1c-.2 0-.4 0-.5-.2V11c.1-.5.5-1 1-1z"
            class="st9"/>
      <path id="svg_11"
            d="M21 9.3c-.3 0-.6 0-1 .3v.4h.1l.8-.2c.1 0 .3 0 .3.2.1 0 .1.2 0 .4-1 0-1.6.4-1.8 1.1l.1.6c.1.2.3.3.6.3s.6-.1.8-.3v.2h.5l.2-.7.2-1c.2-.5.1-.8 0-1-.2-.2-.4-.3-.8-.3zm-1 2.2c.2-.4.5-.6 1.2-.6l-.1.4v.1c-.2.2-.4.5-.8.5l-.2-.1v-.3z"
            class="st9"/>
      <path id="svg_12"
            d="M24 10v-.1l.2-.5H24a1 1 0 0 0-.8.3v-.2-.1h-.4-.1c0 .3 0 .6-.2 1l-.4 1.9h.6l.4-1.5v-.2c.2-.4.5-.6.8-.6h.1z"
            class="st9"/>
      <path id="svg_13"
            d="M27.2 8h-.6v.1l-.4 1.5c0-.2-.3-.3-.7-.3-.7 0-1.4.7-1.6 1.6 0 .5 0 .9.2 1.2.2.2.4.3.7.3.3 0 .7-.2 1-.4l-.1.2v.1h.5l.2-.7.8-3.4V8zM26 10.5v.2l-.1.5v.2c-.2.3-.5.5-.8.5l-.4-.1a1 1 0 0 1-.1-.8c.1-.6.5-1 1-1l.3.1.1.4z"
            class="st9"/>
    </g>
  </g>
</svg>