<svg focusable="false" xmlns="http://www.w3.org/2000/svg" viewBox="0 0 31 21">
  <defs>
    <linearGradient id="a" y2="50%" y1="50%" x1="0%">
      <stop offset="0%" stop-color="#007B40"/>
      <stop offset="100%" stop-color="#55B330"/>
    </linearGradient>
    <linearGradient id="b" y2="50%" y1="50%" x1=".5%">
      <stop offset="0%" stop-color="#1D2970"/>
      <stop offset="100%" stop-color="#006DBA"/>
    </linearGradient>
    <linearGradient id="c" y2="50%" y1="50%" x1=".1%">
      <stop offset="0%" stop-color="#6E2B2F"/>
      <stop offset="100%" stop-color="#E30138"/>
    </linearGradient>
  </defs>
  <g stroke="null" fill="none">
    <rect ry="2" x=".1" y="-.1" rx="2" height="21" width="30.8" fill="#0E4C96"/>
    <path fill="#FFF" d="M27 16.2c0 2.1-1.5 3.8-3.5 3.8H4.1V4.7C4.1 2.6 5.7.8 7.7.8h19.4v15.4z"/>
    <path fill="url(#a)"
          d="M20.8 10.8h1.6c.6.1.7 1 .2 1.3-.3.2-.7 0-1.1.1h-.7v-1.4zm2-1.7c0 .5-.4 1-.8.8h-1.2V8.6h1.5c.2 0 .4.3.4.5zm3-7v14c0 1.4-1.2 2.6-2.5 2.6h-3.8v-5.6h4.2c.6 0 1.3-.5 1.4-1.3 0-.8-.6-1.3-1.3-1.4-.2 0-.2 0 0-.1.6-.2 1.1-.8 1-1.5-.2-.8-1-1-1.6-1h-3.7V4.6c.1-1.4 1.3-2.5 2.5-2.5h3.8z"/>
    <path fill="url(#b)"
          d="M5.4 4.7c0-1.4 1.2-2.6 2.5-2.6h3.8v14c0 1.4-1.2 2.6-2.5 2.6H5.4V13c1.2.3 2.6.5 3.8.2.8 0 1.6-.5 1.9-1.3v-4H9v3.4c-.1.7-.7 1.2-1.4 1.2s-2.2-.6-2.2-.6v-7z"/>
    <path fill="url(#c)"
          d="M12.5 8.5v-.6-3.3c0-1.4 1.2-2.5 2.5-2.5h3.7v14c0 1.4-1.1 2.6-2.4 2.6h-3.8v-6.4c.8.8 2 1 3.1 1 .8 0 1.6-.2 2.4-.4v-1.2a4 4 0 0 1-3 .5c-.6-.1-1.1-.9-1.1-1.6 0-.9.4-1.7 1-2 1-.3 2 0 2.8.4.2 0 .4.2.3-.1v-1c-1.4-.3-3-.5-4.3 0-.5 0-.9.3-1.2.6z"/>
  </g>
</svg>