<svg focusable="false" xmlns="http://www.w3.org/2000/svg" viewBox="0 0 31 21">
  <linearGradient y2=".5" x2="1" y1=".5" id="a">
    <stop stop-color="#00b4e6" offset=".3"/>
    <stop stop-color="#088ccb" offset="1"/>
  </linearGradient>
  <g stroke="null">
    <path
      d="M8.4 5S7.2 5 7 6.4l-1.1 5.1h-.2l-1.2-5C4.1 5 3 5 3 5H.2v11h2.7V9.5h.2L4.7 16h2l1.5-6.5h.2V16h2.8V5H8.4zm10 0s-.8 0-1.2 1.1l-2 5.4h-.1V5h-2.8v11H15s.9 0 1.2-1.1l2-5.4h.1V16H21V5h-2.6zm3.8 5v6h2.7v-3.5h3c1.3 0 2.3-1 2.8-2.5h-8.5z"
      fill="#4DB45E"/>
    <path d="M27.9 5h-6.1c.3 2 1.5 3.8 3.1 4.3a4.4 5.6 0 0 0 1.2.2h4.7v-.8c0-2-1.3-3.7-3-3.7z" fill="url(#a)"/>
  </g>
</svg>