<svg focusable="false" xmlns="http://www.w3.org/2000/svg" viewBox="0 0 31 21">
  <style>.st3{fill:#fff}</style>
  <g stroke="null" id="svg_1">
    <path id="svg_2"
          d="M6 .9h7.8c1 0 1.7.8 1.5 1.9l-3.6 15.4c-.3 1-1.3 2-2.4 2H1.6c-1 0-1.7-1-1.5-2L3.7 2.9C3.9 1.7 5 .9 6 .9z"
          fill="#fe0000"/>
    <path id="svg_3"
          d="M13 .9h9c1 0 .5.8.3 1.9L18.7 18c-.2 1-.1 2-1.3 2H8.6c-1 0-1.7-1-1.5-2l3.6-15.3c.3-1.1 1.3-2 2.4-2z"
          fill="#0b3084"/>
    <path id="svg_4"
          d="M21.6.9h7.8c1 0 1.7.8 1.5 1.9L27.3 18c-.3 1.1-1.4 2-2.5 2h-7.7c-1 0-1.7-.9-1.4-1.9l3.5-15.4c.3-1.1 1.3-2 2.4-2z"
          fill="#026b6f"/>
    <path id="svg_5"
          d="M20.4 15.3h.7l.2-.7h-.7l-.2.7zm.5-2l-.2.9.5-.2h.3l.2-.6h-.8m.3-1.2l-.2.8.4-.2h.4l.1-.6h-.7m1.7 0l-1 3.1h.3l-.2.6h-.2l-.1.2h-.9V16h-1.7l.1-.6h.2l1-3.1.1-.6h.9v.3l.4-.2h1.5l-.1.5h-.3"
          class="st3"/>
    <path id="svg_6"
          d="M23.3 11.5h1v.5h.3l-.2.6H24c-.4 0-.6-.1-.6-.4v-.7zm.1 3h-1l.2-.7h1l.2-.5h-1v-.6h3v.6h-1l-.2.5h1l-.2.6h-1l-.2.2h.5l.1.7v.1l.3.1h.2l-.3.7h-.6c-.2 0-.2 0-.3-.2l-.1-.2-.1-.6-.6.6c-.1.2-.3.4-.7.4h-.7l.2-.6h.4l.2-.2.7-1zm-10.1-1.6h2.4l-.1.6h-1l-.2.5h1l-.2.6h-1l-.3.8c0 .2.3.2.3.2h.6l-.3.6h-1.4L13 16s-.2-.2 0-.3l.2-1h-.6l.2-.7h.6l.1-.5h-.6l.4-.6zm1.6-1h1l-.2.6h-1.4l-.1.1H14c0 .2-.2.2-.4.2H13l.2-.6H13.6l.2-.2.3-.4h1l-.2.3z"
          class="st3"/>
    <path id="svg_7"
          d="M16.9 12.8s.2-.2.7-.3h.8l.2-.4H17l-.2.7zm1.3.3h-1.4l-.2.3H18l.2-.3m-1.9-1.6h.8v.4l.4-.2.6-.2h1.4l-.4 1.6c0 .3-.2.4-.2.5l-.3.2-.3.2h-1.8l-.4 1.2V15.5h.7l-.2.6H15l-.1-.3v-.4l1.3-3.9"
          class="st3"/>
    <path id="svg_8"
          d="M18.9 14.1l-.1.4c0 .1 0 .2-.2.3l-.4.1h-.5v.6l.1.1h.6l-.1.6H17v-2h.7v.4h.4v-.2l.2-.3h.6zM7 5.7l-.6 2.6c-.1.5-.2.8-.5 1-.1.2-.3.3-.6.3s-.6-.2-.6-.6V9l.2-.7.6-2.5H4.2l-.6 2.6v.2l-.2.8.1.5c.3.4 1 .5 1.4.5.6 0 1-.1 1.5-.4.5-.3.7-.9.8-1.4l.1-.2.7-2.6H7zm3.1 4.7h-1c.2-.2.2-.5.2-.6l.1-.2.2-1s0-.2-.2-.2l-.3.1-.2 1-.2.8h-1l.2-1 .3-1.6 1.1-.1h.1V8l.2-.1c.2-.2.5-.2.5-.2.3 0 .5.1.6.3s.1.5-.1 1v.3l-.5 1.2zm1.6 0h-1l.2-.4.1-.4.2-.6v-.6h.6l.6-.2-.2.6-.1.6-.2.6-.2.4zM14.2 9l-.3.6c0 .2-.1.2-.3.2 0 0-.2 0-.2-.3l.1-.5c.1-.4.2-.8.5-.8.2 0 .3.4.2.8zm1 0c.2-.6 0-.8-.1-1-.3-.3-.6-.4-1-.4-.2 0-.7 0-1.2.4a2 2 0 0 0-.5 1c0 .3-.2 1 .4 1.2l.6.2c.5 0 1-.2 1.3-.5.4-.3.4-.6.5-.9m9.5 1.4h-1L24 9l.2-1.2.1-.1 1-.1c-.1.4-.1.8-.3 1.1l-.3 1.7z"
          class="st3"/>
    <path id="svg_9"
          d="M24 9l-.2.6c-.1.2-.3.2-.4.2 0 0-.2 0-.2-.3V9c.2-.4.3-.8.6-.8.2.2.3.4.2.8zm.9 0c.1-.6-.4 0-.5-.2-.2-.3-.1-.9-.6-1.1-.2 0-.7 0-1.1.4-.3.3-.5.6-.6 1-.1.3-.1 1 .4 1.2l.6.2c.6-.1 1-1 1.4-1.3.3-.4.4 0 .4-.2m-7 1.4h-1l.1-.6v-.2c.2-.4.2-.8.2-1 0 0 .1-.2-.1-.2l-.3.1-.2 1-.2.8h-1l.2-1 .3-1.6 1.1-.1V8l.1-.1.6-.2c.3 0 .5.1.6.3s.1.5-.1 1v.3l-.4 1.2zm3.3-4.7h-1.7v.1l-.3 1.5-.8 3h1.2l.2-1 .2-.6.1-.1h.1c.6 0 1.3 0 2-.4.3-.3.5-.6.7-1.2v-.3V6c-.5-.4-1-.4-1.7-.4zm.4 1.5c0 .4-.3.6-.5.7l-.7.1h-.2l.4-1.5v-.1H21.4c.2.2.3.4.2.8m7 .5c-.6 0-.7 0-1.1.2l-.7 1.2V7.7h-1.1V8.7l.2.7.2 1-.7 1.3h1c.1-.6 2.1-3.9 2.1-3.9zM12.1 8c.3-.1.3-.4 0-.6a.6.6 0 0 0-.8.2c-.3.1-.3.4 0 .6 0 0 .5 0 .8-.2z"
          class="st3"/>
    <path id="svg_10" d="M26.3 11.6l-.4.6c-.2.3-.4.4-.7.4h-.6l.1-.6h.3l.3-.4h1z" class="st3"/>
  </g>
</svg>