<svg focusable="false" xmlns="http://www.w3.org/2000/svg" viewBox="0 0 31 21">
  <g stroke="null" fill-rule="evenodd" fill="none">
    <rect ry="2" rx="2" height="21" width="31.1" fill="#26337A"/>
    <path fill="#FFF"
          d="M11 15.7l1.5-10.4H15l-1.5 10.4h-2.3M22 5.6C21.6 5.3 21 5 20 5c-2.4 0-4 1.4-4 3.5 0 1.5 1.1 2.3 2 2.8 1 .5 1.3.8 1.3 1.3 0 .7-.8 1-1.5 1-1 0-1.4-.2-2.2-.5l-.3-.2-.4 2.3c.6.3 1.6.6 2.7.6 2.5 0 4.1-1.4 4.2-3.6 0-1.2-.7-2-2-2.8-.9-.5-1.4-.8-1.4-1.3 0-.4.4-1 1.4-1a4.2 4.7 0 0 1 1.8.5l.2.1.3-2.2m3.2 6.4l1-2.9.3-1 .1 1 .6 3h-2zm3-6.7h-2c-.5 0-1 .2-1.2.9l-3.5 9.5H24l.5-1.5h3l.3 1.5h2.3l-2-10.4zM9 5.3l-2.3 7.1-.2-1.4A7.8 7.8 0 0 0 3 6.6l2.2 9.1h2.5l3.8-10.4H9"/>
    <path fill="#ED982D" d="M4.5 5.3H.7v.2c3 .9 5 3 5.8 5.5l-.9-4.8c-.1-.7-.5-.9-1-.9"/>
  </g>
</svg>